<svg width="420" height="280" viewBox="0 0 420 280" fill="none" xmlns="http://www.w3.org/2000/svg" shape-rendering="geometricPrecision">
  <defs>
    <linearGradient id="panel" x1="0" y1="0" x2="1" y2="1">
      <stop offset="0" stop-color="#FFFFFF" stop-opacity="0.14"/>
      <stop offset="1" stop-color="#93C5FD" stop-opacity="0.06"/>
    </linearGradient>
    <linearGradient id="glassGradient" x1="0" y1="0" x2="0" y2="110" gradientUnits="userSpaceOnUse">
      <stop offset="0%" stop-color="#FFFFFF" stop-opacity="0.25"/>
      <stop offset="100%" stop-color="#FFFFFF" stop-opacity="0.05"/>
    </linearGradient>
    <filter id="blueGlow" x="-50%" y="-50%" width="200%" height="200%" color-interpolation-filters="sRGB">
      <feDropShadow dx="0" dy="0" stdDeviation="6" flood-color="#3B82F6" flood-opacity="0.4"/>
    </filter>
    <filter id="yellowGlow" x="-50%" y="-50%" width="200%" height="200%" color-interpolation-filters="sRGB">
      <feDropShadow dx="0" dy="0" stdDeviation="6" flood-color="#FBBF24" flood-opacity="0.5"/>
    </filter>
  </defs>

  <rect x="18" y="18" width="384" height="244" rx="26" fill="url(#panel)" stroke="#FFFFFF" stroke-opacity="0.18"/>
  <circle cx="340" cy="58" r="36" fill="#60A5FA" opacity="0.08"/>
  <circle cx="86" cy="220" r="26" fill="#FDE68A" opacity="0.08"/>

  <g transform="translate(50 30)">
    <g filter="url(#blueGlow)">
      <rect x="60" y="50" width="160" height="110" rx="16" fill="url(#glassGradient)" stroke="#FFFFFF" stroke-opacity="0.3" stroke-width="1.5"/>
    </g>

    <rect x="60" y="50" width="160" height="28" rx="16" fill="#3B82F6" fill-opacity="0.35"/>

    <rect x="80" y="95" width="120" height="6" rx="3" fill="#FFFFFF" fill-opacity="0.4"/>
    <rect x="80" y="110" width="100" height="6" rx="3" fill="#FFFFFF" fill-opacity="0.35"/>
    <rect x="80" y="125" width="80" height="6" rx="3" fill="#FFFFFF" fill-opacity="0.3"/>

    <g filter="url(#yellowGlow)">
      <circle cx="210" cy="60" r="15" fill="#FBBF24"/>
      <rect x="208.5" y="53" width="3" height="10" rx="1.5" fill="#111A2E"/>
      <circle cx="210" cy="67" r="2" fill="#111A2E"/>
    </g>

    <g filter="url(#blueGlow)">
      <path d="M250 95L270 85L290 95V115C290 130 270 140 270 140C270 140 250 130 250 115Z" fill="url(#glassGradient)" stroke="#FFFFFF" stroke-opacity="0.35" stroke-width="1.5"/>
    </g>
    <path d="M270 95V125" stroke="#FFFFFF" stroke-opacity="0.5" stroke-width="1.5" stroke-linecap="round"/>
  </g>
</svg>
