<svg width="420" height="280" viewBox="0 0 420 280" fill="none" xmlns="http://www.w3.org/2000/svg" shape-rendering="geometricPrecision">
  <defs>
    <linearGradient id="panel" x1="0" y1="0" x2="1" y2="1">
      <stop offset="0" stop-color="#FFFFFF" stop-opacity="0.14"/>
      <stop offset="1" stop-color="#93C5FD" stop-opacity="0.06"/>
    </linearGradient>
    <linearGradient id="accentWarm" x1="0" y1="0" x2="1" y2="1">
      <stop offset="0" stop-color="#FDE68A"/>
      <stop offset="1" stop-color="#F59E0B"/>
    </linearGradient>
  </defs>

  <rect x="18" y="18" width="384" height="244" rx="26" fill="url(#panel)" stroke="#FFFFFF" stroke-opacity="0.18"/>
  <circle cx="88" cy="60" r="30" fill="#7DD3FC" opacity="0.08"/>
  <circle cx="336" cy="220" r="32" fill="#FDE68A" opacity="0.08"/>

  <g filter="url(#shadow)">
    <rect x="70" y="90" width="150" height="110" rx="18" fill="#0F172A" fill-opacity="0.55" stroke="#FFFFFF" stroke-opacity="0.16"/>
  </g>
  <rect x="70" y="90" width="150" height="36" rx="18" fill="#FFFFFF" fill-opacity="0.08"/>

  <g transform="translate(114 114) scale(2.6)">
    <path d="M2 16.9C2 15.5906 2 14.9359 2.29472 14.455C2.45963 14.1859 2.68589 13.9596 2.955 13.7947C3.43594 13.5 4.09063 13.5 5.4 13.5H6.5C8.38562 13.5 9.32843 13.5 9.91421 14.0858C10.5 14.6716 10.5 15.6144 10.5 17.5V18.6C10.5 19.9094 10.5 20.5641 10.2053 21.045C10.0404 21.3141 9.81411 21.5404 9.545 21.7053C9.06406 22 8.40937 22 7.1 22C5.13594 22 4.15391 22 3.4325 21.5579C3.02884 21.3106 2.68945 20.9712 2.44208 20.5675" stroke="#E2E8F0" stroke-opacity="0.85" stroke-width="1.5" stroke-linecap="round"/>
    <path d="M22 7.1C22 8.40937 22 9.06406 21.7053 9.545C21.5404 9.81411 21.3141 10.0404 21.045 10.2053C20.5641 10.5 19.9094 10.5 18.6 10.5H17.5C15.6144 10.5 14.6716 10.5 14.0858 9.91421C13.5 9.32843 13.5 8.38562 13.5 6.5V5.4C13.5 4.09063 13.5 3.43594 13.7947 2.955C13.9596 2.68589 14.1859 2.45963 14.455 2.29472C14.9359 2 15.5906 2 16.9 2C18.8641 2 19.8461 2 20.5675 2.44208C20.9712 2.68945 21.3106 3.02884 21.5579 3.4325" stroke="#E2E8F0" stroke-opacity="0.85" stroke-width="1.5" stroke-linecap="round"/>
    <path d="M16.5 6.25C16.5 5.73459 16.5 5.47689 16.6291 5.29493C16.6747 5.23072 16.7307 5.17466 16.7949 5.12911C16.9769 5 17.2346 5 17.75 5C18.2654 5 18.5231 5 18.7051 5.12911C18.7693 5.17466 18.8253 5.23072 18.8709 5.29493C19 5.47689 19 5.73459 19 6.25C19 6.76541 19 7.02311 18.8709 7.20507C18.8253 7.26928 18.7693 7.32534 18.7051 7.37089C18.5231 7.5 18.2654 7.5 17.75 7.5C17.2346 7.5 16.9769 7.5 16.7949 7.37089C16.7307 7.32534 16.6747 7.26928 16.6291 7.20507C16.5 7.02311 16.5 6.76541 16.5 6.25Z" fill="#E2E8F0" fill-opacity="0.85"/>
    <path d="M12.75 22C12.75 22.4142 13.0858 22.75 13.5 22.75C13.9142 22.75 14.25 22.4142 14.25 22H12.75ZM14.3889 13.8371L14.8055 14.4607L14.8055 14.4607L14.3889 13.8371ZM13.8371 14.3889L13.2135 13.9722L13.2135 13.9722L13.8371 14.3889ZM19 12.75H17V14.25H19V12.75ZM12.75 19V22H14.25V19H12.75ZM17 12.75C16.3134 12.75 15.742 12.7491 15.281 12.796C14.8075 12.8441 14.3682 12.9489 13.9722 13.2135L14.8055 14.4607C14.914 14.3882 15.078 14.3244 15.4328 14.2883C15.8002 14.2509 16.2822 14.25 17 14.25V12.75ZM14.25 17C14.25 16.2822 14.2509 15.8002 14.2883 15.4328C14.3244 15.078 14.3882 14.914 14.4607 14.8055L13.2135 13.9722C12.9489 14.3682 12.8441 14.8075 12.796 15.281C12.7491 15.742 12.75 16.3134 12.75 17H14.25ZM13.9722 13.2135C13.6719 13.4141 13.4141 13.6719 13.2135 13.9722L14.4607 14.8055C14.5519 14.669 14.669 14.5519 14.8055 14.4607L13.9722 13.2135Z" fill="#E2E8F0" fill-opacity="0.85"/>
    <path d="M22.75 13.5C22.75 13.0858 22.4142 12.75 22 12.75C21.5858 12.75 21.25 13.0858 21.25 13.5H22.75ZM20.7654 21.8478L21.0524 22.5407L21.0524 22.5407L20.7654 21.8478ZM21.8478 20.7654L21.1548 20.4784V20.4784L21.8478 20.7654ZM17 22.75H19V21.25H17V22.75ZM22.75 17V13.5H21.25V17H22.75ZM19 22.75C19.4557 22.75 19.835 22.7504 20.1454 22.7292C20.4625 22.7076 20.762 22.661 21.0524 22.5407L20.4784 21.1548C20.4012 21.1868 20.284 21.2163 20.0433 21.2327C19.7958 21.2496 19.4762 21.25 19 21.25V22.75ZM21.25 19C21.25 19.4762 21.2496 19.7958 21.2327 20.0433C21.2163 20.284 21.1868 20.4012 21.1548 20.4784L22.5407 21.0524C22.661 20.762 22.7076 20.4625 22.7292 20.1454C22.7504 19.835 22.75 19.4557 22.75 19H21.25ZM21.0524 22.5407C21.7262 22.2616 22.2616 21.7262 22.5407 21.0524L21.1548 20.4784C21.028 20.7846 20.7846 21.028 20.4784 21.1549L21.0524 22.5407Z" fill="#E2E8F0" fill-opacity="0.85"/>
    <path d="M2 7.1C2 5.13594 2 4.15391 2.44208 3.4325C2.68945 3.02884 3.02884 2.68945 3.4325 2.44208C4.15391 2 5.13594 2 7.1 2C8.40937 2 9.06406 2 9.545 2.29472C9.81411 2.45963 10.0404 2.68589 10.2053 2.955C10.5 3.43594 10.5 4.09063 10.5 5.4V6.5C10.5 8.38562 10.5 9.32843 9.91421 9.91421C9.32843 10.5 8.38562 10.5 6.5 10.5H5.4C4.09063 10.5 3.43594 10.5 2.955 10.2053C2.68589 10.0404 2.45963 9.81411 2.29472 9.545C2 9.06406 2 8.40937 2 7.1Z" stroke="#E2E8F0" stroke-opacity="0.85" stroke-width="1.5"/>
    <path d="M5 6.25C5 5.73459 5 5.47689 5.12911 5.29493C5.17466 5.23072 5.23072 5.17466 5.29493 5.12911C5.47689 5 5.73459 5 6.25 5C6.76541 5 7.02311 5 7.20507 5.12911C7.26928 5.17466 7.32534 5.23072 7.37089 5.29493C7.5 5.47689 7.5 5.73459 7.5 6.25C7.5 6.76541 7.5 7.02311 7.37089 7.20507C7.32534 7.26928 7.26928 7.32534 7.20507 7.37089C7.02311 7.5 6.76541 7.5 6.25 7.5C5.73459 7.5 5.47689 7.5 5.29493 7.37089C5.23072 7.32534 5.17466 7.26928 5.12911 7.20507C5 7.02311 5 6.76541 5 6.25Z" fill="#E2E8F0" fill-opacity="0.85"/>
    <path d="M5 17.75C5 17.2346 5 16.9769 5.12911 16.7949C5.17466 16.7307 5.23072 16.6747 5.29493 16.6291C5.47689 16.5 5.73459 16.5 6.25 16.5C6.76541 16.5 7.02311 16.5 7.20507 16.6291C7.26928 16.6747 7.32534 16.7307 7.37089 16.7949C7.5 16.9769 7.5 17.2346 7.5 17.75C7.5 18.2654 7.5 18.5231 7.37089 18.7051C7.32534 18.7693 7.26928 18.8253 7.20507 18.8709C7.02311 19 6.76541 19 6.25 19C5.73459 19 5.47689 19 5.29493 18.8709C5.23072 18.8253 5.17466 18.7693 5.12911 18.7051C5 18.5231 5 18.2654 5 17.75Z" fill="#E2E8F0" fill-opacity="0.85"/>
    <path d="M16 17.75C16 17.0478 16 16.6967 16.1685 16.4444C16.2415 16.3352 16.3352 16.2415 16.4444 16.1685C16.6967 16 17.0478 16 17.75 16C18.4522 16 18.8033 16 19.0556 16.1685C19.1648 16.2415 19.2585 16.3352 19.3315 16.4444C19.5 16.6967 19.5 17.0478 19.5 17.75C19.5 18.4522 19.5 18.8033 19.3315 19.0556C19.2585 19.1648 19.1648 19.2585 19.0556 19.3315C18.8033 19.5 18.4522 19.5 17.75 19.5C17.0478 19.5 16.6967 19.5 16.4444 19.3315C16.3352 19.2585 16.2415 19.1648 16.1685 19.0556C16 18.8033 16 18.4522 16 17.75Z" fill="#E2E8F0" fill-opacity="0.85"/>
  </g>

  <g>
    <rect x="250" y="86" width="110" height="120" rx="16" fill="#0B1220" fill-opacity="0.5" stroke="#FFFFFF" stroke-opacity="0.14"/>
    <rect x="268" y="104" width="74" height="84" rx="12" fill="#0F172A" fill-opacity="0.6"/>
  </g>

  <g transform="translate(276 118) scale(2.4)">
    <path d="M10.4246 6.53553L14.243 2.71716C14.639 2.32114 14.837 2.12313 15.0654 2.04894C15.2662 1.98369 15.4825 1.98369 15.6834 2.04894C15.9117 2.12313 16.1097 2.32114 16.5057 2.71716L21.3141 7.52548C21.7101 7.9215 21.9081 8.11951 21.9823 8.34784C22.0475 8.54868 22.0475 8.76503 21.9823 8.96587C21.9081 9.1942 21.7101 9.39221 21.3141 9.78823L17.4957 13.6066M15.7279 6.18198L15.0208 6.88909M17.8492 8.3033L17.1421 9.01041M4.41421 14.6673L2.71716 16.3643C2.32114 16.7603 2.12313 16.9583 2.04894 17.1867C1.98369 17.3875 1.98369 17.6039 2.04894 17.8047C2.12313 18.033 2.32114 18.231 2.71716 18.6271L5.40416 21.3141C5.80018 21.7101 5.99819 21.9081 6.22652 21.9823C6.42736 22.0475 6.64371 22.0475 6.84455 21.9823C7.07288 21.9081 7.27089 21.7101 7.6669 21.3141L9.36396 19.617M5.68701 15.9401L8.09117 18.3442C9.27922 19.5323 9.87325 20.1263 10.5582 20.3489C11.1608 20.5446 11.8098 20.5446 12.4123 20.3489C13.0973 20.1263 13.6913 19.5323 14.8794 18.3442L17.425 15.7986C17.821 15.4026 18.019 15.2046 18.0932 14.9763C18.1584 14.7754 18.1584 14.5591 18.0932 14.3582C18.019 14.1299 17.821 13.9319 17.425 13.5359L10.4953 6.60624C10.0993 6.21023 9.90131 6.01222 9.67298 5.93803C9.47213 5.87277 9.25579 5.87277 9.05494 5.93803C8.82662 6.01222 8.62861 6.21023 8.23259 6.60624L5.68701 9.15183C4.49896 10.3399 3.90493 10.9339 3.68236 11.6189C3.48659 12.2214 3.48659 12.8705 3.68236 13.473C3.90493 14.158 4.49896 14.752 5.68701 15.9401Z" stroke="#E2E8F0" stroke-opacity="0.85" stroke-width="2" stroke-linecap="round" stroke-linejoin="round"/>
  </g>

  <g>
    <rect x="160" y="190" width="100" height="40" rx="12" fill="#0B1220" fill-opacity="0.55" stroke="#FFFFFF" stroke-opacity="0.16"/>
    <rect x="180" y="174" width="60" height="18" rx="6" fill="url(#accentBlue)"/>
    <rect x="192" y="196" width="36" height="16" rx="4" fill="url(#accentWarm)"/>
  </g>
</svg>
