<svg width="600" height="420" viewBox="0 0 600 420" fill="none" xmlns="http://www.w3.org/2000/svg" shape-rendering="geometricPrecision">
  <defs>
    <linearGradient id="panel" x1="0" y1="0" x2="1" y2="1">
      <stop offset="0" stop-color="#FFFFFF" stop-opacity="0.12"/>
      <stop offset="1" stop-color="#8FB3FF" stop-opacity="0.05"/>
    </linearGradient>
    <linearGradient id="panelStrong" x1="0" y1="0" x2="1" y2="1">
      <stop offset="0" stop-color="#FFFFFF" stop-opacity="0.18"/>
      <stop offset="1" stop-color="#9BB8FF" stop-opacity="0.08"/>
    </linearGradient>
    <linearGradient id="highlight" x1="0" y1="0" x2="0" y2="1">
      <stop offset="0" stop-color="#FFFFFF" stop-opacity="0.35"/>
      <stop offset="1" stop-color="#FFFFFF" stop-opacity="0"/>
    </linearGradient>
    <linearGradient id="accentBlue" x1="0" y1="0" x2="1" y2="1">
      <stop offset="0" stop-color="#7DD3FC"/>
      <stop offset="1" stop-color="#3B82F6"/>
    </linearGradient>
    <linearGradient id="accentWarm" x1="0" y1="0" x2="1" y2="1">
      <stop offset="0" stop-color="#FDE68A"/>
      <stop offset="1" stop-color="#F59E0B"/>
    </linearGradient>
    <filter id="shadow" x="-20%" y="-20%" width="140%" height="140%" color-interpolation-filters="sRGB">
      <feDropShadow dx="0" dy="14" stdDeviation="18" flood-color="#020617" flood-opacity="0.45"/>
    </filter>
    <filter id="glow" x="-50%" y="-50%" width="200%" height="200%" color-interpolation-filters="sRGB">
      <feGaussianBlur stdDeviation="10" result="blur"/>
      <feMerge>
        <feMergeNode in="blur"/>
        <feMergeNode in="SourceGraphic"/>
      </feMerge>
    </filter>
  </defs>

  <rect x="20" y="20" width="560" height="380" rx="34" fill="url(#panel)" stroke="#FFFFFF" stroke-opacity="0.18" stroke-width="1"/>
  <circle cx="520" cy="70" r="64" fill="#60A5FA" opacity="0.08"/>
  <circle cx="110" cy="90" r="44" fill="#FDE68A" opacity="0.08"/>
  <circle cx="520" cy="330" r="54" fill="#7DD3FC" opacity="0.06"/>

  <g filter="url(#shadow)">
    <rect x="70" y="135" width="290" height="200" rx="22" fill="url(#panelStrong)" stroke="#FFFFFF" stroke-opacity="0.2"/>
  </g>
  <rect x="70" y="135" width="290" height="70" rx="22" fill="url(#highlight)" opacity="0.55"/>
  <rect x="95" y="170" width="110" height="120" rx="16" fill="#0F172A" fill-opacity="0.6" stroke="#FFFFFF" stroke-opacity="0.12"/>
  <rect x="225" y="176" width="120" height="46" rx="12" fill="url(#accentBlue)"/>
  <rect x="225" y="236" width="120" height="64" rx="12" fill="#E2E8F0" fill-opacity="0.12" stroke="#FFFFFF" stroke-opacity="0.12"/>
  <rect x="112" y="192" width="76" height="12" rx="6" fill="#93C5FD" fill-opacity="0.6"/>
  <rect x="112" y="214" width="76" height="12" rx="6" fill="#93C5FD" fill-opacity="0.35"/>

  <g filter="url(#shadow)">
    <rect x="380" y="150" width="170" height="210" rx="26" fill="url(#panelStrong)" stroke="#FFFFFF" stroke-opacity="0.18"/>
  </g>
  <rect x="380" y="150" width="170" height="70" rx="26" fill="url(#highlight)" opacity="0.45"/>
  <path d="M465 182L512 204V264C512 304 487 330 465 344C443 330 418 304 418 264V204L465 182Z" fill="url(#accentWarm)" opacity="0.7" filter="url(#glow)"/>
  <path d="M465 182L512 204V264C512 304 487 330 465 344C443 330 418 304 418 264V204L465 182Z" fill="url(#accentWarm)"/>
  <path d="M465 208V268" stroke="#0B1220" stroke-opacity="0.85" stroke-width="10" stroke-linecap="round"/>
  <circle cx="465" cy="288" r="9" fill="#0B1220" fill-opacity="0.85"/>

  <g>
    <circle cx="170" cy="95" r="24" fill="url(#accentWarm)"/>
    <path d="M170 95L186 111" stroke="#0B1220" stroke-opacity="0.85" stroke-width="6" stroke-linecap="round"/>
    <path d="M170 95L154 111" stroke="#0B1220" stroke-opacity="0.85" stroke-width="6" stroke-linecap="round"/>
  </g>
</svg>
