<svg width="420" height="280" viewBox="0 0 420 280" fill="none" xmlns="http://www.w3.org/2000/svg" shape-rendering="geometricPrecision">
  <defs>
    <linearGradient id="panel" x1="0" y1="0" x2="1" y2="1">
      <stop offset="0" stop-color="#FFFFFF" stop-opacity="0.14"/>
      <stop offset="1" stop-color="#93C5FD" stop-opacity="0.06"/>
    </linearGradient>
    <linearGradient id="highlight" x1="0" y1="0" x2="0" y2="1">
      <stop offset="0" stop-color="#FFFFFF" stop-opacity="0.3"/>
      <stop offset="1" stop-color="#FFFFFF" stop-opacity="0"/>
    </linearGradient>
    <linearGradient id="accentBlue" x1="0" y1="0" x2="1" y2="1">
      <stop offset="0" stop-color="#7DD3FC"/>
      <stop offset="1" stop-color="#3B82F6"/>
    </linearGradient>
    <linearGradient id="accentWarm" x1="0" y1="0" x2="1" y2="1">
      <stop offset="0" stop-color="#FDE68A"/>
      <stop offset="1" stop-color="#F59E0B"/>
    </linearGradient>
    <filter id="shadow" x="-20%" y="-20%" width="140%" height="140%" color-interpolation-filters="sRGB">
      <feDropShadow dx="0" dy="12" stdDeviation="14" flood-color="#020617" flood-opacity="0.45"/>
    </filter>
  </defs>

  <rect x="18" y="18" width="384" height="244" rx="26" fill="url(#panel)" stroke="#FFFFFF" stroke-opacity="0.18"/>
  <circle cx="340" cy="58" r="36" fill="#60A5FA" opacity="0.08"/>
  <circle cx="86" cy="220" r="26" fill="#FDE68A" opacity="0.08"/>

  <g filter="url(#shadow)">
    <rect x="70" y="62" width="280" height="156" rx="20" fill="#0F172A" fill-opacity="0.55" stroke="#FFFFFF" stroke-opacity="0.16"/>
  </g>
  <rect x="70" y="62" width="280" height="52" rx="20" fill="url(#highlight)" opacity="0.55"/>

  <path d="M92 100H210" stroke="#93C5FD" stroke-opacity="0.55" stroke-width="10" stroke-linecap="round"/>
  <path d="M92 128H250" stroke="#93C5FD" stroke-opacity="0.35" stroke-width="10" stroke-linecap="round"/>
  <path d="M92 154H220" stroke="#93C5FD" stroke-opacity="0.35" stroke-width="10" stroke-linecap="round"/>

  <g>
    <path d="M110 176L210 228L310 176" stroke="url(#accentBlue)" stroke-width="6" stroke-linecap="round" stroke-linejoin="round"/>
    <rect x="102" y="170" width="216" height="46" rx="10" fill="#0B1220" fill-opacity="0.35"/>
  </g>

  <g>
    <circle cx="308" cy="96" r="24" fill="url(#accentWarm)"/>
    <path d="M308 84V108" stroke="#0B1220" stroke-opacity="0.85" stroke-width="6" stroke-linecap="round"/>
    <circle cx="308" cy="118" r="4" fill="#0B1220" fill-opacity="0.85"/>
  </g>
</svg>
