<?xml version="1.0" encoding="UTF-8" standalone="no"?>
<svg
   xmlns:dc="http://purl.org/dc/elements/1.1/"
   xmlns:cc="http://creativecommons.org/ns#"
   xmlns:rdf="http://www.w3.org/1999/02/22-rdf-syntax-ns#"
   xmlns:svg="http://www.w3.org/2000/svg"
   xmlns="http://www.w3.org/2000/svg"
   viewBox="0 0 94.487602 43.151733"
   height="43.151733"
   width="94.487602"
   xml:space="preserve"
   id="svg2"
   version="1.1"><metadata
     id="metadata8"><rdf:RDF><cc:Work
         rdf:about=""><dc:format>image/svg+xml</dc:format><dc:type
           rdf:resource="http://purl.org/dc/dcmitype/StillImage" /></cc:Work></rdf:RDF></metadata><defs
     id="defs6"><clipPath
       id="clipPath20"
       clipPathUnits="userSpaceOnUse"><path
         id="path18"
         d="M 0,32.364 H 70.866 V 0 H 0 Z" /></clipPath></defs><g
     transform="matrix(1.3333333,0,0,-1.3333333,0,43.151733)"
     id="g10"><path
       id="path12"
       style="fill:#002a6c;fill-opacity:1;fill-rule:nonzero;stroke:none"
       d="M 0,0.01 H 70.866 V 32.364 H 0 Z" /><g
       id="g14"><g
         clip-path="url(#clipPath20)"
         id="g16"><g
           transform="translate(23.7124,23.9492)"
           id="g22"><path
             id="path24"
             style="fill:#ffffff;fill-opacity:1;fill-rule:nonzero;stroke:none"
             d="m 0,0 v -10.002 c 0,-2.954 -2.087,-5.08 -5.06,-5.08 -1.536,0 -3.228,0.669 -4.43,1.615 l 1.831,4.587 c 0.276,-0.709 0.591,-1.556 1.437,-1.556 0.868,0 0.946,0.985 0.946,1.615 l 0,8.821 z" /></g><g
           transform="translate(30.6509,23.9492)"
           id="g26"><path
             id="path28"
             style="fill:#ffffff;fill-opacity:1;fill-rule:nonzero;stroke:none"
             d="m 0,0 1.654,-3.879 h 0.158 c 0.157,0.472 0.295,0.945 0.492,1.398 L 3.367,0 H 9.431 L 4.352,-8.447 v -6.399 h -5.278 v 6.399 L -6.104,0 Z" /></g><g
           transform="translate(40.5684,14.4199)"
           id="g30"><path
             id="path32"
             style="fill:#ffffff;fill-opacity:1;fill-rule:nonzero;stroke:none"
             d="m 0,0 0.275,-0.217 c 0.965,-0.748 2.126,-1.359 3.368,-1.359 0.531,0 1.378,0.217 1.378,0.886 0,0.67 -0.709,0.729 -1.202,0.828 L 2.737,0.334 c -2.107,0.374 -3.879,1.615 -3.879,3.938 0,3.524 3.209,5.494 6.439,5.494 1.693,0 3.248,-0.414 4.705,-1.3 L 8.545,4.666 C 7.62,5.296 6.576,5.788 5.415,5.788 4.942,5.788 4.253,5.611 4.253,5.001 4.253,4.449 4.922,4.371 5.336,4.272 L 6.557,3.997 c 2.283,-0.513 3.937,-1.733 3.937,-4.253 0,-3.545 -3.229,-5.297 -6.438,-5.297 -1.87,0 -4.036,0.512 -5.71,1.359 z" /></g><g
           transform="translate(52.6714,23.9492)"
           id="g34"><path
             id="path36"
             style="fill:#ffffff;fill-opacity:1;fill-rule:nonzero;stroke:none"
             d="M 0,0 H 5.256 L 5.138,-6.438 h 0.118 c 0.119,0.61 0.453,1.141 0.748,1.673 L 8.604,0 h 5.887 l -4.647,-7.226 5.139,-7.62 H 8.722 l -2.56,4.49 c -0.314,0.57 -0.787,1.122 -0.906,1.732 H 5.138 l 0.118,-6.222 H 0 Z" /></g><g
           transform="translate(6.2495,26.6143)"
           id="g38"><path
             id="path40"
             style="fill:#ffffff;fill-opacity:1;fill-rule:nonzero;stroke:none"
             d="M 0,0 Z M -1.013,0.448 C -1.233,0.443 -1.421,0.367 -1.557,0.226 -1.691,0.085 -1.761,-0.105 -1.756,-0.325 c 0.006,-0.335 0.187,-0.707 0.486,-0.994 0.518,-0.497 1.201,-0.597 1.557,-0.227 0.135,0.142 0.201,0.329 0.201,0.534 0,0.33 -0.17,0.705 -0.488,1.012 -0.299,0.287 -0.678,0.455 -1.013,0.448" /></g><g
           transform="translate(10.7847,24.0322)"
           id="g42"><path
             id="path44"
             style="fill:#ffffff;fill-opacity:1;fill-rule:nonzero;stroke:none"
             d="M 0,0 C 0,0 1.026,-0.133 1.886,-0.166 2.747,-0.199 2.614,0.198 2.614,0.198 2.217,0.529 -0.132,1.852 -0.132,1.852 -0.463,0.992 0,0 0,0 m -3.427,-24.029 c 0.221,0.795 0.285,1.634 0.285,1.634 0.024,0.227 0.042,0.457 0.054,0.691 0.137,2.814 -0.872,6.305 -2.945,9.099 -2.107,2.838 -3.441,4.896 -3.441,6.616 0,1.721 1.258,2.549 2.151,2.746 0.893,0.199 3.242,0.199 4.103,0.927 0.839,0.711 1.323,1.72 1.224,2.978 -0.1,1.256 -0.407,4.009 -4.666,4.201 -1.495,0.068 -3.065,-0.545 -4.123,-1.358 l 0.002,2.224 c 0.971,0.479 2.435,0.987 4.287,0.987 3.508,0 5.128,-2.25 5.128,-2.25 0,0 2.085,-0.86 3.541,-1.985 1.455,-1.125 2.646,-2.349 2.746,-2.514 0.099,-0.165 0.364,-0.794 -0.53,-1.092 -0.893,-0.298 -2.679,-0.628 -4.5,-0.628 0,0 -1.19,-2.119 -3.077,-2.78 -1.885,-0.661 -4.073,-0.028 -4.168,-1.753 -0.066,-1.191 0.993,-2.614 1.39,-3.176 0.396,-0.562 4.924,-5.068 4.665,-11.978 -0.056,-1.485 -0.29,-2.592 -0.29,-2.592 l -1.836,0.003" /></g></g></g></g></svg>