<svg width="420" height="280" viewBox="0 0 420 280" fill="none" xmlns="http://www.w3.org/2000/svg" shape-rendering="geometricPrecision">
  <defs>
    <linearGradient id="panel" x1="0" y1="0" x2="1" y2="1">
      <stop offset="0" stop-color="#FFFFFF" stop-opacity="0.14"/>
      <stop offset="1" stop-color="#93C5FD" stop-opacity="0.06"/>
    </linearGradient>
    <linearGradient id="glass" x1="0" y1="0" x2="0" y2="1">
      <stop offset="0" stop-color="#FFFFFF" stop-opacity="0.22"/>
      <stop offset="1" stop-color="#FFFFFF" stop-opacity="0.06"/>
    </linearGradient>
    <linearGradient id="rim" x1="0" y1="0" x2="1" y2="1">
      <stop offset="0" stop-color="#FFFFFF" stop-opacity="0.7"/>
      <stop offset="1" stop-color="#60A5FA" stop-opacity="0.25"/>
    </linearGradient>
    <filter id="shadow" x="-20%" y="-20%" width="140%" height="140%" color-interpolation-filters="sRGB">
      <feDropShadow dx="0" dy="14" stdDeviation="16" flood-color="#020617" flood-opacity="0.45"/>
    </filter>
  </defs>

  <rect x="18" y="18" width="384" height="244" rx="26" fill="url(#panel)" stroke="#FFFFFF" stroke-opacity="0.18"/>
  <circle cx="92" cy="60" r="30" fill="#7DD3FC" opacity="0.08"/>
  <circle cx="330" cy="220" r="34" fill="#FDE68A" opacity="0.08"/>

  <g filter="url(#shadow)">
    <rect x="70" y="40" width="280" height="200" rx="24" fill="url(#glass)" stroke="url(#rim)" stroke-width="1.2"/>
  </g>

  <g transform="translate(110 48) scale(1.9)">
    <g transform="translate(-96 -288)">
      <path d="m 106,297 h 49 v 6 h -49 z" fill="#0F172A" fill-opacity="0.75"/>
      <path d="m 106,303 h 49 v 40 h -49 z" fill="#0B1220" fill-opacity="0.6"/>
      <path d="m 106,303 v 40 h 29.76953 a 28.484051,41.392605 35.599482 0 0 18.625,-40 z" fill="#1E293B" fill-opacity="0.55"/>
      <path d="m 108,296 c -1.64501,0 -3,1.355 -3,3 v 40 c 0,0.55229 0.44772,1 1,1 0.55229,0 1,-0.44771 1,-1 v -40 c 0,-0.56413 0.43587,-1 1,-1 h 45 c 0.56413,0 1,0.43587 1,1 v 3 h -42 c -0.55228,0 -1,0.44772 -1,1 0,0.55229 0.44772,1 1,1 h 42 v 37 c 0,0.56413 -0.43587,1 -1,1 h -49 c -0.55228,0 -1,0.44772 -1,1 0,0.55229 0.44772,1 1,1 h 49 c 1.64501,0 3,-1.35499 3,-3 0,-14 0,-28 0,-42 0,-1.645 -1.35499,-3 -3,-3 z" fill="none" stroke="#E2E8F0" stroke-opacity="0.35" stroke-width="2"/>
      <path d="m 151,299 c -0.55228,0 -1,0.44772 -1,1 0,0.55229 0.44772,1 1,1 0.55229,0 1,-0.44771 1,-1 0,-0.55228 -0.44771,-1 -1,-1 z" fill="#F87171"/>
      <path d="m 147,299 c -0.55228,0 -1,0.44772 -1,1 0,0.55229 0.44772,1 1,1 0.55229,0 1,-0.44771 1,-1 0,-0.55228 -0.44771,-1 -1,-1 z" fill="#FBBF24"/>
      <path d="m 143,299 c -0.55228,0 -1,0.44772 -1,1 0,0.55229 0.44772,1 1,1 0.55229,0 1,-0.44771 1,-1 0,-0.55228 -0.44771,-1 -1,-1 z" fill="#34D399"/>
      <path d="m 101,342 a 1,1 0 0 0 -1,1 1,1 0 0 0 1,1 1,1 0 0 0 1,-1 1,1 0 0 0 -1,-1 z" fill="#94A3B8" fill-opacity="0.7"/>
      <path d="m 109,302 c -0.55228,0 -1,0.44772 -1,1 0,0.55229 0.44772,1 1,1 0.55229,0 1,-0.44771 1,-1 0,-0.55228 -0.44771,-1 -1,-1 z" fill="#94A3B8" fill-opacity="0.7"/>
      <path d="m 121.99998,313.00001 c 4.14207,0.0516 6.81286,-1.68094 9,-4.00001 2.38683,2.76379 5.44015,3.97273 8.99999,4.00001 V 320 c 0,4.97056 -4.02944,9 -9,9 -4.97056,0 -8.99999,-4.02944 -8.99999,-9 z" fill="#60A5FA" fill-opacity="0.85"/>
      <path d="M 126.58984,312.17578 C 125.27763,312.71454 123.77472,313.02211 122,313 v 7 c 0,4.97056 4.02944,9 9,9 2.11021,0 4.04933,-0.72717 5.58398,-1.94336 A 11.924097,11.924097 0 0 0 137,324 11.924097,11.924097 0 0 0 126.58984,312.17578 Z" fill="#93C5FD" fill-opacity="0.85"/>
      <path d="m 135.36523,316.47656 -6.00781,4.93555 -1.45312,-3.08789 a 1,1 0 0 0 -1.33008,-0.47852 1,1 0 0 0 -0.47852,1.33008 l 2,4.25 a 1.0001,1.0001 0 0 0 1.53907,0.34766 l 7,-5.75 a 1,1 0 0 0 0.13867,-1.40821 1,1 0 0 0 -1.40821,-0.13867 z" fill="#0B1220"/>
      <path d="m 117.99998,333 h 25 c 1.108,0 2,0.892 2,2 0,1.108 -0.892,2 -2,2 h -25 c -1.108,0 -2,-0.892 -2,-2 0,-1.108 0.892,-2 2,-2 z" fill="#FBBF24" fill-opacity="0.9"/>
      <path d="m 118,333 c -1.108,0 -2,0.892 -2,2 h 23 c 1.108,0 2,-0.892 2,-2 z" fill="#FCD34D" fill-opacity="0.9"/>
      <path d="m 138.95899,337 h -20.95901 c -1.108,0 -2,-0.892 -2,-2 0,-1.108 0.892,-2 2,-2 M 122,333 h 20.99998 c 1.108,0 2,0.892 2,2 0,1.108 -0.892,2 -2,2" fill="none" stroke="#0B1220" stroke-opacity="0.6" stroke-width="2" stroke-linecap="round" stroke-linejoin="round"/>
      <path d="m 130.3457,308.24219 a 1.000005,1.000005 0 0 0 -0.10351,1.41211 c 2.33729,2.70643 5.38206,4.00416 8.75781,4.24804 V 320 c 0,1.28933 -0.30296,2.50019 -0.8418,3.57617 a 1.000005,1.000005 0 0 0 0.44532,1.3418 1.000005,1.000005 0 0 0 1.34375,-0.44531 C 140.62139,323.12654 141,321.60391 141,320 v -7 a 1.000105,1.000105 0 0 0 -0.99219,-1 c -3.33783,-0.0256 -6.04658,-1.10062 -8.25195,-3.6543 a 1.000005,1.000005 0 0 0 -1.41016,-0.10351 z m -2.8164,2.34765 c -1.48586,0.89428 -3.21959,1.43875 -5.51758,1.41016 A 1.000105,1.000105 0 0 0 121,313 v 7 c 0,5.511 4.489,10 10,10 2.10223,0 4.06225,-0.65144 5.67383,-1.76367 a 1.000005,1.000005 0 0 0 0.25586,-1.39258 1.000005,1.000005 0 0 0 -1.39258,-0.25391 C 134.24717,327.4801 132.68992,328 131,328 c -4.43011,0 -8,-3.56989 -8,-8 v -6.12305 c 2.15301,-0.13399 4.0319,-0.65419 5.56055,-1.57422 a 1.000005,1.000005 0 0 0 0.33984,-1.37304 1.000005,1.000005 0 0 0 -1.37109,-0.33985 z" fill="#E2E8F0" fill-opacity="0.6"/>
    </g>
  </g>
</svg>
